{
    "asset" : {
        "generator" : "Khronos glTF Blender I/O v3.2.43",
        "version" : "2.0"
    },
    "scene" : 0,
    "scenes" : [
        {
            "name" : "Scene",
            "nodes" : [
                0,
                1,
                2
            ]
        }
    ],
    "nodes" : [
        {
            "mesh" : 0,
            "name" : "Cube",
            "scale" : [
                1,
                0.13797640800476074,
                1
            ]
        },
        {
            "mesh" : 1,
            "name" : "Cube.001",
            "scale" : [
                1,
                0.13797640800476074,
                1
            ],
            "translation" : [
                0.2041090428829193,
                -0.015503920614719391,
                3.126621961593628
            ]
        },
        {
            "mesh" : 2,
            "name" : "Plane",
            "scale" : [
                2.9414656162261963,
                2.9414656162261963,
                2.9414656162261963
            ],
            "translation" : [
                0.022275522351264954,
                -0.1476096659898758,
                1.6084791421890259
            ]
        }
    ],
    "materials" : [
        {
            "doubleSided" : true,
            "name" : "Material",
            "pbrMetallicRoughness" : {
                "baseColorFactor" : [
                    0.05359012633562088,
                    0.01479897927492857,
                    0.0028744980227202177,
                    1
                ],
                "metallicFactor" : 0.22077922523021698,
                "roughnessFactor" : 0.4000000059604645
            }
        },
        {
            "doubleSided" : true,
            "name" : "Material.001",
            "pbrMetallicRoughness" : {
                "baseColorFactor" : [
                    0.07036282122135162,
                    0.07036282122135162,
                    0.07036282122135162,
                    1
                ],
                "metallicFactor" : 0.15909090638160706,
                "roughnessFactor" : 0.5
            }
        }
    ],
    "meshes" : [
        {
            "name" : "Cube",
            "primitives" : [
                {
                    "attributes" : {
                        "POSITION" : 0,
                        "NORMAL" : 1,
                        "TEXCOORD_0" : 2
                    },
                    "indices" : 3,
                    "material" : 0
                }
            ]
        },
        {
            "name" : "Cube.001",
            "primitives" : [
                {
                    "attributes" : {
                        "POSITION" : 4,
                        "NORMAL" : 5,
                        "TEXCOORD_0" : 6
                    },
                    "indices" : 7,
                    "material" : 0
                }
            ]
        },
        {
            "name" : "Plane.001",
            "primitives" : [
                {
                    "attributes" : {
                        "POSITION" : 8,
                        "NORMAL" : 9,
                        "TEXCOORD_0" : 10
                    },
                    "indices" : 11,
                    "material" : 1
                }
            ]
        }
    ],
    "accessors" : [
        {
            "bufferView" : 0,
            "componentType" : 5126,
            "count" : 3089,
            "max" : [
                1.0878239870071411,
                3.090376853942871,
                1.0878220796585083
            ],
            "min" : [
                -1.0878232717514038,
                -1,
                -1.0878220796585083
            ],
            "type" : "VEC3"
        },
        {
            "bufferView" : 1,
            "componentType" : 5126,
            "count" : 3089,
            "type" : "VEC3"
        },
        {
            "bufferView" : 2,
            "componentType" : 5126,
            "count" : 3089,
            "type" : "VEC2"
        },
        {
            "bufferView" : 3,
            "componentType" : 5123,
            "count" : 17280,
            "type" : "SCALAR"
        },
        {
            "bufferView" : 4,
            "componentType" : 5126,
            "count" : 3181,
            "max" : [
                1.0875189304351807,
                3.069826602935791,
                1.0875191688537598
            ],
            "min" : [
                -1.0858728885650635,
                -0.9999999403953552,
                -1.0858726501464844
            ],
            "type" : "VEC3"
        },
        {
            "bufferView" : 5,
            "componentType" : 5126,
            "count" : 3181,
            "type" : "VEC3"
        },
        {
            "bufferView" : 6,
            "componentType" : 5126,
            "count" : 3181,
            "type" : "VEC2"
        },
        {
            "bufferView" : 7,
            "componentType" : 5123,
            "count" : 17712,
            "type" : "SCALAR"
        },
        {
            "bufferView" : 8,
            "componentType" : 5126,
            "count" : 4,
            "max" : [
                1,
                0,
                1
            ],
            "min" : [
                -1,
                0,
                -1
            ],
            "type" : "VEC3"
        },
        {
            "bufferView" : 9,
            "componentType" : 5126,
            "count" : 4,
            "type" : "VEC3"
        },
        {
            "bufferView" : 10,
            "componentType" : 5126,
            "count" : 4,
            "type" : "VEC2"
        },
        {
            "bufferView" : 11,
            "componentType" : 5123,
            "count" : 6,
            "type" : "SCALAR"
        }
    ],
    "bufferViews" : [
        {
            "buffer" : 0,
            "byteLength" : 37068,
            "byteOffset" : 0
        },
        {
            "buffer" : 0,
            "byteLength" : 37068,
            "byteOffset" : 37068
        },
        {
            "buffer" : 0,
            "byteLength" : 24712,
            "byteOffset" : 74136
        },
        {
            "buffer" : 0,
            "byteLength" : 34560,
            "byteOffset" : 98848
        },
        {
            "buffer" : 0,
            "byteLength" : 38172,
            "byteOffset" : 133408
        },
        {
            "buffer" : 0,
            "byteLength" : 38172,
            "byteOffset" : 171580
        },
        {
            "buffer" : 0,
            "byteLength" : 25448,
            "byteOffset" : 209752
        },
        {
            "buffer" : 0,
            "byteLength" : 35424,
            "byteOffset" : 235200
        },
        {
            "buffer" : 0,
            "byteLength" : 48,
            "byteOffset" : 270624
        },
        {
            "buffer" : 0,
            "byteLength" : 48,
            "byteOffset" : 270672
        },
        {
            "buffer" : 0,
            "byteLength" : 32,
            "byteOffset" : 270720
        },
        {
            "buffer" : 0,
            "byteLength" : 12,
            "byteOffset" : 270752
        }
    ],
    "buffers" : [
        {
            "byteLength" : 270764,
            "uri" : "puffgltf.bin"
        }
    ]
}
