{
  "accessors": [
    {
      "bufferView": 2,
      "componentType": 5126,
      "count": 65532,
      "max": [
        1463.7911376953125,
        556.1306762695313,
        788.10986328125
      ],
      "min": [
        -1463.7911376953125,
        -638.3306884765625,
        0.2384936660528183
      ],
      "type": "VEC3"
    },
    {
      "bufferView": 2,
      "byteOffset": 786384,
      "componentType": 5126,
      "count": 65532,
      "max": [
        1.0,
        0.9999999403953552,
        0.999999463558197
      ],
      "min": [
        -1.0,
        -1.0,
        -1.0
      ],
      "type": "VEC3"
    },
    {
      "bufferView": 1,
      "componentType": 5126,
      "count": 65532,
      "max": [
        0.9992018938064575,
        0.9986170530319214
      ],
      "min": [
        0.001421119086444378,
        0.0006898401770740747
      ],
      "type": "VEC2"
    },
    {
      "bufferView": 0,
      "componentType": 5125,
      "count": 369690,
      "type": "SCALAR"
    },
    {
      "bufferView": 2,
      "byteOffset": 1572768,
      "componentType": 5126,
      "count": 6546,
      "max": [
        1179.9188232421875,
        363.4436950683594,
        624.242431640625
      ],
      "min": [
        603.3792724609375,
        -361.78564453125,
        0.2384936660528183
      ],
      "type": "VEC3"
    },
    {
      "bufferView": 2,
      "byteOffset": 1651320,
      "componentType": 5126,
      "count": 6546,
      "max": [
        0.9998398423194885,
        0.9998394846916199,
        0.999776303768158
      ],
      "min": [
        -0.9998390078544617,
        -0.9998395442962646,
        -1.0
      ],
      "type": "VEC3"
    },
    {
      "bufferView": 1,
      "byteOffset": 524256,
      "componentType": 5126,
      "count": 6546,
      "max": [
        0.9577824473381042,
        0.9958440065383911
      ],
      "min": [
        0.24337852001190186,
        0.008405927568674088
      ],
      "type": "VEC2"
    },
    {
      "bufferView": 0,
      "byteOffset": 1478760,
      "componentType": 5125,
      "count": 37062,
      "type": "SCALAR"
    },
    {
      "bufferView": 2,
      "byteOffset": 1729872,
      "componentType": 5126,
      "count": 2612,
      "max": [
        1298.280517578125,
        -566.86767578125,
        560.2574462890625
      ],
      "min": [
        -1298.280517578125,
        -629.2573852539063,
        275.7535705566406
      ],
      "type": "VEC3"
    },
    {
      "bufferView": 2,
      "byteOffset": 1761216,
      "componentType": 5126,
      "count": 2612,
      "max": [
        0.9999730587005615,
        0.9999599456787109,
        0.9975777268409729
      ],
      "min": [
        -0.9999730587005615,
        -0.9999650716781616,
        -0.9996523261070251
      ],
      "type": "VEC3"
    },
    {
      "bufferView": 1,
      "byteOffset": 576624,
      "componentType": 5126,
      "count": 2612,
      "max": [
        1.1567440032958984,
        3.3116636276245117
      ],
      "min": [
        -0.15674400329589844,
        -2.3450379371643066
      ],
      "type": "VEC2"
    },
    {
      "bufferView": 0,
      "byteOffset": 1627008,
      "componentType": 5125,
      "count": 6276,
      "type": "SCALAR"
    }
  ],
  "asset": {
    "extras": {
      "author": "VirtualBG (https://sketchfab.com/undereality)",
      "license": "CC-BY-4.0 (http://creativecommons.org/licenses/by/4.0/)",
      "source": "https://sketchfab.com/3d-models/sofa-92184d1f1c21498a8bd7b5a3f5d9635b",
      "title": "Sofa"
    },
    "generator": "Sketchfab-12.66.0",
    "version": "2.0"
  },
  "bufferViews": [
    {
      "buffer": 0,
      "byteLength": 1652112,
      "name": "floatBufferViews",
      "target": 34963
    },
    {
      "buffer": 0,
      "byteLength": 597520,
      "byteOffset": 1652112,
      "byteStride": 8,
      "name": "floatBufferViews",
      "target": 34962
    },
    {
      "buffer": 0,
      "byteLength": 1792560,
      "byteOffset": 2249632,
      "byteStride": 12,
      "name": "floatBufferViews",
      "target": 34962
    }
  ],
  "buffers": [
    {
      "byteLength": 4042192,
      "uri": "scene.bin"
    }
  ],
  "images": [
    {
      "uri": "textures/Sofa_baseColor.png"
    },
    {
      "uri": "textures/Sofa_metallicRoughness.png"
    }
  ],
  "materials": [
    {
      "name": "Sofa",
      "occlusionTexture": {
        "index": 1,
        "strength": 0.75
      },
      "pbrMetallicRoughness": {
        "baseColorTexture": {
          "index": 0
        },
        "metallicFactor": 0.0,
        "metallicRoughnessTexture": {
          "index": 1
        }
      }
    },
    {
      "doubleSided": true,
      "name": "Detail",
      "pbrMetallicRoughness": {
        "baseColorFactor": [
          0.588235,
          0.588235,
          0.588235,
          1.0
        ],
        "metallicFactor": 0.0,
        "roughnessFactor": 0.8929713596497552
      }
    }
  ],
  "meshes": [
    {
      "name": "Sofa_Sofa_0",
      "primitives": [
        {
          "attributes": {
            "NORMAL": 1,
            "POSITION": 0,
            "TEXCOORD_0": 2
          },
          "indices": 3,
          "material": 0,
          "mode": 4
        }
      ]
    },
    {
      "name": "Sofa_Sofa_0",
      "primitives": [
        {
          "attributes": {
            "NORMAL": 5,
            "POSITION": 4,
            "TEXCOORD_0": 6
          },
          "indices": 7,
          "material": 0,
          "mode": 4
        }
      ]
    },
    {
      "name": "Detail_Detail_0",
      "primitives": [
        {
          "attributes": {
            "NORMAL": 9,
            "POSITION": 8,
            "TEXCOORD_0": 10
          },
          "indices": 11,
          "material": 1,
          "mode": 4
        }
      ]
    }
  ],
  "nodes": [
    {
      "children": [
        1
      ],
      "matrix": [
        1.0,
        0.0,
        0.0,
        0.0,
        0.0,
        2.220446049250313e-16,
        -1.0,
        0.0,
        0.0,
        1.0,
        2.220446049250313e-16,
        0.0,
        0.0,
        0.0,
        0.0,
        1.0
      ],
      "name": "Sketchfab_model"
    },
    {
      "children": [
        2
      ],
      "matrix": [
        1.0,
        0.0,
        0.0,
        0.0,
        0.0,
        0.0,
        1.0,
        0.0,
        0.0,
        -1.0,
        0.0,
        0.0,
        0.0,
        0.0,
        0.0,
        1.0
      ],
      "name": "model.FBX"
    },
    {
      "children": [
        3,
        6
      ],
      "name": "RootNode"
    },
    {
      "children": [
        4,
        5
      ],
      "matrix": [
        1.0,
        0.0,
        0.0,
        0.0,
        0.0,
        2.220446049250313e-16,
        -1.0,
        0.0,
        0.0,
        1.0,
        2.220446049250313e-16,
        0.0,
        0.0,
        0.0,
        1997.2415771484375,
        1.0
      ],
      "name": "Sofa"
    },
    {
      "mesh": 0,
      "name": "Sofa_Sofa_0"
    },
    {
      "mesh": 1,
      "name": "Sofa_Sofa_0"
    },
    {
      "children": [
        7
      ],
      "matrix": [
        1.0,
        0.0,
        0.0,
        0.0,
        0.0,
        2.220446049250313e-16,
        -1.0,
        0.0,
        0.0,
        1.0,
        2.220446049250313e-16,
        0.0,
        0.0,
        0.0,
        1997.2415771484375,
        1.0
      ],
      "name": "Detail"
    },
    {
      "mesh": 2,
      "name": "Detail_Detail_0"
    }
  ],
  "samplers": [
    {
      "magFilter": 9729,
      "minFilter": 9987,
      "wrapS": 10497,
      "wrapT": 10497
    }
  ],
  "scene": 0,
  "scenes": [
    {
      "name": "Sketchfab_Scene",
      "nodes": [
        0
      ]
    }
  ],
  "textures": [
    {
      "sampler": 0,
      "source": 0
    },
    {
      "sampler": 0,
      "source": 1
    }
  ]
}
